<svg width="47" height="55" viewBox="0 0 47 55" fill="none" xmlns="http://www.w3.org/2000/svg">
<rect width="47" height="55" fill="#E5E5E5"/>
<g clip-path="url(#clip0_3_26)">
<path d="M17.2597 33.6196H28.7371C30.1966 33.6196 31 32.8234 31 31.3751V24.6385C31 23.1901 30.1966 22.3972 28.7371 22.3972H27.1176C26.6215 22.3972 26.4423 22.3269 26.0998 21.9975L25.6037 21.4988C25.2453 21.1535 24.8964 21 24.2562 21H21.7181C21.0812 21 20.7291 21.1535 20.3739 21.4988L19.8746 21.9975C19.5321 22.3237 19.3529 22.3972 18.8568 22.3972H17.2597C15.8002 22.3972 15 23.1901 15 24.6385V31.3751C15 32.8234 15.8002 33.6196 17.2597 33.6196ZM17.4389 31.9697C16.93 31.9697 16.6515 31.7172 16.6515 31.1736V24.8431C16.6515 24.2996 16.93 24.047 17.4389 24.047H19.4105C19.9866 24.047 20.2618 23.9543 20.5883 23.609L21.0524 23.1134C21.3981 22.7457 21.6093 22.6498 22.1566 22.6498H23.8177C24.3683 22.6498 24.5763 22.7489 24.9092 23.1038L25.3893 23.609C25.7158 23.9511 25.991 24.047 26.5639 24.047H28.5547C29.07 24.047 29.3484 24.2996 29.3484 24.8431V31.1736C29.3484 31.7172 29.07 31.9697 28.5547 31.9697H17.4389ZM22.9984 31.2408C24.8803 31.2408 26.391 29.7349 26.391 27.8421C26.391 25.9557 24.8836 24.4498 22.9984 24.4498C21.1196 24.4498 19.6057 25.9557 19.6057 27.8421C19.6057 29.7349 21.1196 31.2408 22.9984 31.2408ZM22.9984 29.7956C21.9262 29.7956 21.0492 28.926 21.0492 27.8421C21.0492 26.7582 21.923 25.8918 22.9984 25.8918C24.0802 25.8918 24.9476 26.7582 24.9476 27.8421C24.9476 28.926 24.0802 29.7956 22.9984 29.7956ZM26.5415 25.6488C26.5415 26.1412 26.9448 26.5312 27.4312 26.5312C27.9114 26.5312 28.3114 26.138 28.3114 25.6488C28.3114 25.1756 27.9082 24.7696 27.4312 24.7696C26.948 24.7696 26.5415 25.1756 26.5415 25.6488Z" fill="#616161" fill-opacity="0.85"/>
</g>
<defs>
<clipPath id="clip0_3_26">
<rect width="16" height="13" fill="white" transform="translate(15 21)"/>
</clipPath>
</defs>
</svg>
