<svg width="43" height="59" viewBox="0 0 43 59" fill="none" xmlns="http://www.w3.org/2000/svg">
<rect width="43" height="59" fill="url(#paint0_linear_2_17)"/>
<g clip-path="url(#clip0_2_17)">
<path d="M14.6791 36H27.3176C28.3331 36 29 35.3245 29 34.3096V24.7073C29 23.689 28.3331 23.017 27.3176 23.017H14.6791C13.6703 23.017 13 23.689 13 24.7073V34.3096C13 35.3245 13.6703 36 14.6791 36ZM14.6992 34.4726C14.5149 34.4726 14.3842 34.3402 14.3842 34.1569V33.5629C14.3842 33.3898 14.5115 33.2642 14.6858 33.2642H15.3762C15.5505 33.2642 15.6745 33.3898 15.6745 33.5629V34.1671C15.6745 34.3436 15.5505 34.4726 15.3762 34.4726H14.6992ZM14.6858 32.2968C14.5115 32.2968 14.3842 32.1611 14.3842 31.9914V31.3974C14.3842 31.2141 14.5082 31.0885 14.6858 31.0885H15.3762C15.5505 31.0885 15.6745 31.2141 15.6745 31.3974V31.9914C15.6745 32.1611 15.5505 32.2968 15.3762 32.2968H14.6858ZM14.6858 30.1041C14.5115 30.1041 14.3842 29.9718 14.3842 29.8055V29.2081C14.3842 29.0282 14.5082 28.9026 14.6858 28.9026H15.3762C15.5505 28.9026 15.6745 29.0282 15.6745 29.2081V29.8055C15.6745 29.9718 15.5505 30.1041 15.3762 30.1041H14.6858ZM14.6858 27.9251C14.5115 27.9251 14.3842 27.7893 14.3842 27.6264V27.0256C14.3842 26.8457 14.5082 26.7167 14.6858 26.7167H15.3762C15.5505 26.7167 15.6745 26.8457 15.6745 27.0256V27.6264C15.6745 27.7893 15.5505 27.9251 15.3762 27.9251H14.6858ZM14.6858 25.7425C14.5115 25.7425 14.3842 25.6136 14.3842 25.4473V24.8533C14.3842 24.6632 14.5149 24.5342 14.6992 24.5342H15.3762C15.5505 24.5342 15.6745 24.6598 15.6745 24.8397V25.4473C15.6745 25.6136 15.5505 25.7425 15.3762 25.7425H14.6858ZM17.2363 34.4726C17.0084 34.4726 16.8509 34.313 16.8509 34.0822V30.6574C16.8509 30.43 17.0084 30.2705 17.2363 30.2705H24.7302C24.9514 30.2705 25.1123 30.43 25.1123 30.6574V34.0822C25.1123 34.313 24.9514 34.4726 24.7302 34.4726H17.2363ZM17.2363 28.7431C17.0084 28.7431 16.8509 28.5869 16.8509 28.3561V24.9177C16.8509 24.6869 17.0084 24.5342 17.2363 24.5342H24.7302C24.9514 24.5342 25.1123 24.6869 25.1123 24.9177V28.3561C25.1123 28.5869 24.9514 28.7431 24.7302 28.7431H17.2363ZM26.5836 34.4726C26.4093 34.4726 26.2853 34.3436 26.2853 34.1671V33.5629C26.2853 33.3898 26.4093 33.2642 26.5836 33.2642H27.274C27.455 33.2642 27.579 33.3898 27.579 33.5629V34.1569C27.579 34.3402 27.4517 34.4726 27.2606 34.4726H26.5836ZM26.5836 32.2968C26.4093 32.2968 26.2853 32.1611 26.2853 31.9914V31.3974C26.2853 31.2141 26.4093 31.0885 26.5836 31.0885H27.274C27.455 31.0885 27.579 31.2141 27.579 31.3974V31.9914C27.579 32.1611 27.455 32.2968 27.274 32.2968H26.5836ZM26.5836 30.1041C26.4093 30.1041 26.2853 29.9718 26.2853 29.8055V29.2081C26.2853 29.0282 26.4093 28.9026 26.5836 28.9026H27.274C27.455 28.9026 27.579 29.0282 27.579 29.2081V29.8055C27.579 29.9718 27.455 30.1041 27.274 30.1041H26.5836ZM26.5836 27.9251C26.4093 27.9251 26.2853 27.7893 26.2853 27.6264V27.0256C26.2853 26.8457 26.4093 26.7167 26.5836 26.7167H27.274C27.455 26.7167 27.579 26.8457 27.579 27.0256V27.6264C27.579 27.7893 27.455 27.9251 27.274 27.9251H26.5836ZM26.5836 25.7425C26.4093 25.7425 26.2853 25.6136 26.2853 25.4473V24.8397C26.2853 24.6598 26.4093 24.5342 26.5836 24.5342H27.2606C27.4517 24.5342 27.579 24.6632 27.579 24.8533V25.4473C27.579 25.6136 27.455 25.7425 27.274 25.7425H26.5836Z" fill="#8F8F8F" fill-opacity="0.85"/>
</g>
<defs>
<linearGradient id="paint0_linear_2_17" x1="0.500001" y1="-5.5939e-07" x2="34.5" y2="59" gradientUnits="userSpaceOnUse">
<stop stop-color="#D9D9D9"/>
<stop offset="1" stop-color="#CACACA"/>
</linearGradient>
<clipPath id="clip0_2_17">
<rect width="16" height="13" fill="white" transform="translate(13 23)"/>
</clipPath>
</defs>
</svg>
